<?xml version="1.0" encoding="UTF-8" standalone="no"?>
<svg
   xmlns:dc="http://purl.org/dc/elements/1.1/"
   xmlns:cc="http://creativecommons.org/ns#"
   xmlns:rdf="http://www.w3.org/1999/02/22-rdf-syntax-ns#"
   xmlns:svg="http://www.w3.org/2000/svg"
   xmlns="http://www.w3.org/2000/svg"
   viewBox="0 0 124.8 35.84"
   height="35.84"
   width="124.8"
   id="svg2"
   version="1.1">
  <metadata
     id="metadata8">
    <rdf:RDF>
      <cc:Work
         rdf:about="">
        <dc:format>image/svg+xml</dc:format>
        <dc:type
           rdf:resource="http://purl.org/dc/dcmitype/StillImage" />
        <dc:title></dc:title>
      </cc:Work>
    </rdf:RDF>
  </metadata>
  <defs
     id="defs6" />
  <path
     id="path4487"
     d="M 60.1,22.4 C 60.067,15.008 60.031,8.5639995 60.02,8.0799995 c -0.01891,-0.832592 0.05757,-0.88 1.42,-0.88 1.348477,0 1.459459,0.0661 1.746176,1.04 0.301376,1.0237 0.902086,1.353844 1.297942,0.713335 0.11104,-0.179666 0.94754,-0.754315 1.858887,-1.276997 1.381437,-0.792292 2.012736,-0.950831 3.796163,-0.953335 2.532064,-0.0036 3.32663,0.257756 4.849514,1.594866 1.768035,1.552354 2.546121,3.9488885 2.546121,7.8421315 0,2.544916 -0.146217,3.57879 -0.714262,5.05034 C 74.862022,26.284007 71.084358,28.327348 65.36,27.409358 L 63.68,27.139944 V 31.489972 35.84 h -1.76 -1.76 z m 10.312195,1.52 c 1.151043,-0.580437 1.610311,-1.085286 2.369338,-2.604495 0.802518,-1.606261 0.944009,-2.267706 0.958317,-4.48 0.03096,-4.787105 -1.370701,-6.9155055 -4.554205,-6.9155055 -1.728896,0 -1.809427,0.04138 -3.636845,1.8688005 L 63.68,13.6576 v 4.812018 c 0,5.199065 0.03428,5.309197 1.819542,5.84508 C 67.136947,24.8062 68.94247,24.661139 70.412195,23.92 Z M 4.1046269,27.511476 c -0.9984554,-0.155269 -2.349217,-0.505362 -3.0016925,-0.777984 -1.13523313,-0.47433 -1.17778543,-0.547304 -0.98814863,-1.694584 0.1089938,-0.659399 0.1997554,-1.444455 0.2016924,-1.744568 0.00316,-0.489901 0.2168148,-0.465376 2.09082703,0.24 4.5138522,1.69901 8.7466748,0.662132 9.2981898,-2.277697 C 12.109833,19.101336 11.149706,17.974455 6.4464253,15.084185 2.6440445,12.747538 0.81973597,10.830796 0.36062357,8.6900285 0.00937797,7.0522265 0.30113557,5.1035105 1.1406446,3.4800775 1.8171018,2.1719535 3.8780336,0.77147653 5.8079034,0.30850853 c 2.0555088,-0.493109 6.7267826,-0.250567 8.3520966,0.433658 1.161607,0.48901397 1.2,0.55688997 1.2,2.12150497 0,1.851157 -0.03504,1.864521 -2.56,0.976328 -2.50668,-0.881762 -5.3628822,-0.843836 -6.7480154,0.0896 C 3.0372636,5.9612205 3.649496,8.7689795 7.68,11.39584 c 5.452018,3.553325 6.377018,4.290975 7.25107,5.782431 2.198138,3.75084 0.178788,8.432304 -4.294282,9.955443 -1.5505278,0.527976 -4.4776552,0.697252 -6.5321611,0.377757 z M 26.24,27.550256 c -4.68425,-0.99507 -7.279192,-5.150879 -6.976531,-11.172939 0.310056,-6.169198 3.656752,-9.6470725 9.290055,-9.6541915 3.844118,-0.0049 5.538713,0.909526 6.129634,3.3074825 0.517607,2.100435 -1.81774,2.529914 -3.538924,0.65082 -1.033619,-1.1284485 -1.111259,-1.1549495 -2.986281,-1.0193225 -1.661998,0.120218 -2.078839,0.288284 -3.050281,1.2298425 -2.538949,2.460847 -2.769865,8.274919 -0.457622,11.522164 0.856884,1.203384 2.895871,2.212061 4.46995,2.211264 0.616,-3.12e-4 1.984,-0.356483 3.04,-0.791491 1.056,-0.435007 2.028,-0.791589 2.16,-0.792404 0.423203,-0.0026 0.257386,2.785726 -0.187626,3.155052 -1.254393,1.041054 -5.741331,1.810666 -7.892374,1.353723 z m 17.614381,-0.04802 c -3.064512,-0.626108 -5.875091,-3.31417 -6.787776,-6.491889 -0.615024,-2.141343 -0.505271,-6.186025 0.221846,-8.175593 0.762695,-2.086914 2.638493,-4.2983955 4.430522,-5.2233835 1.88304,-0.971966 6.073677,-1.179717 8.109961,-0.402052 2.010301,0.76774 4.015629,2.684972 4.93482,4.7180255 0.649843,1.437316 0.755235,2.167915 0.749059,5.192656 -0.0065,3.192163 -0.09027,3.69058 -0.899229,5.351524 -0.490624,1.007338 -1.479651,2.334495 -2.19784,2.949238 -2.08801,1.787259 -5.701466,2.665778 -8.561363,2.081474 z M 49.21327,23.784224 C 49.689971,23.431719 50.44,22.508061 50.88,21.731652 c 0.705891,-1.245589 0.8,-1.788094 0.8,-4.611653 0,-2.910669 -0.07916,-3.334653 -0.875478,-4.689264 -1.510778,-2.5699715 -4.411184,-3.4675645 -7.164583,-2.217235 -3.477757,1.579265 -4.359609,9.120922 -1.468304,12.557043 0.460151,0.546857 1.275776,1.193542 1.812499,1.437078 1.347568,0.611451 4.13489,0.385765 5.229136,-0.423397 z m 36.906026,3.753821 C 84.696656,27.17753 83.507984,26.264339 82.72,24.926549 82.124272,23.915159 82.08,23.264482 82.08,15.519999 V 7.1999985 h 1.6 1.6 l 0.16,7.5200005 c 0.110419,5.189681 0.28472,7.73803 0.562477,8.223589 0.903709,1.579824 2.775152,2.111393 4.776691,1.356784 0.97511,-0.367631 2.805606,-1.990356 3.407098,-3.020373 0.237065,-0.405964 0.432243,-3.097379 0.533734,-7.36 l 0.16,-6.7200005 h 1.6 1.6 l 0.16,9.6000005 c 0.088,5.28 0.10576,9.787388 0.03946,10.016419 -0.168105,0.580755 -2.619622,0.367215 -2.943782,-0.256419 -0.137229,-0.264 -0.336147,-0.754865 -0.442048,-1.090811 -0.181162,-0.574712 -0.24399,-0.562687 -1.063088,0.203468 -0.4788,0.447854 -1.334931,1.048549 -1.902518,1.334879 -1.243664,0.627389 -4.318324,0.908198 -5.80873,0.53051 z M 106.56,27.416921 c -2.70849,-0.626174 -3.2,-0.995448 -3.2,-2.404181 0,-1.837043 0.43962,-2.046057 2.28728,-1.087458 3.04386,1.579211 6.64982,0.941377 7.45472,-1.318614 0.45667,-1.282231 -0.54295,-2.366836 -3.77176,-4.092427 -3.57657,-1.911451 -4.79681,-2.858148 -5.44521,-4.224541 -1.33491,-2.81313 -0.052,-5.7703685 3.06906,-7.0744285 1.6142,-0.674457 5.73239,-0.626024 7.60591,0.08945 1.36253,0.520334 1.4453,0.622852 1.53854,1.905526 0.12212,1.6799535 -0.30842,1.9016175 -2.00928,1.0344695 -0.90234,-0.4600385 -1.89102,-0.6447205 -3.45147,-0.6447205 -1.89521,0 -2.29164,0.10476 -2.97233,0.7854545 -1.66464,1.664634 -0.69224,3.056834 3.71698,5.3217 4.45825,2.290044 5.84372,4.160903 5.28538,7.137085 -0.68949,3.675319 -5.18755,5.710197 -10.10782,4.572683 z M 120.29539,5.4646145 c -1.1397,-1.139692 -1.19668,-2.245155 -0.17686,-3.430771 1.52703,-1.77528297 4.68147,-0.637472 4.68147,1.688615 0,1.079726 -1.62315,2.67754 -2.72,2.67754 -0.51196,0 -1.22072,-0.37149 -1.78461,-0.935384 z M 122.56,5.1011135 c 0,-0.165613 -0.216,-0.301115 -0.48,-0.301115 -0.49485,0 -0.63574,0.377589 -0.27537,0.737967 0.25566,0.255658 0.75537,-0.03334 0.75537,-0.436852 z m -1.6,-1.489686 c 0,-1.090382 -0.0424,-1.146201 -0.51289,-0.675682 -0.32747,0.32747 -0.43536,0.757161 -0.29843,1.188571 0.34238,1.078762 0.81132,0.782317 0.81132,-0.512889 z m 3.04487,0.533215 c 0.19326,-0.6089 -0.28619,-1.584644 -0.77865,-1.584644 -0.11848,0 -0.24936,0.504 -0.29084,1.12 -0.0851,1.263722 0.70669,1.607722 1.06949,0.464644 z"
     style="fill:#ff8200;stroke-width:0.31999999;fill-opacity:1" />
</svg>
